<?xml version="1.0" encoding="iso-8859-1"?>
<!-- Uploaded to: SVG Repo, www.svgrepo.com, Generator: SVG Repo Mixer Tools -->
<svg fill="#000000" height="800px" width="800px" version="1.1" id="Layer_1" xmlns="http://www.w3.org/2000/svg" xmlns:xlink="http://www.w3.org/1999/xlink" 
	 viewBox="0 0 184.746 184.746" xml:space="preserve">
<g>
	<g>
		<g>
			<path d="M169.966,77.593c0-2.04-1.653-3.695-3.695-3.695h-15.846C148.941,32.833,123.096,0,91.449,0
				C59.802,0,33.957,32.833,32.473,73.898H18.475c-2.042,0-3.695,1.655-3.695,3.695c0,37.407,26.609,68.711,61.89,75.992v23.771
				H58.195v7.39h22.169h25.864h22.169v-7.39h-18.475v-24.247C144.269,145.124,169.966,114.335,169.966,77.593z M91.449,7.39
				c27.611,0,50.235,29.511,51.657,66.508H39.792C41.214,36.9,63.838,7.39,91.449,7.39z M102.534,177.356H84.059v-22.631
				c2.733,0.293,5.504,0.462,8.314,0.462c3.452,0,6.827-0.305,10.161-0.744V177.356z M92.372,147.796
				c-37.469,0-68.178-29.51-70.105-66.508h13.758h110.847h15.606C160.551,118.286,129.841,147.796,92.372,147.796z"/>
			<path d="M146.782,98.771c-1.851-0.848-4.045-0.031-4.893,1.826c-5.503,12.045-15.148,21.744-27.164,27.311
				c-1.851,0.857-2.656,3.055-1.797,4.905c0.626,1.35,1.961,2.142,3.357,2.142c0.52,0,1.046-0.11,1.551-0.343
				c13.611-6.309,24.54-17.298,30.772-30.945C149.456,101.811,148.641,99.618,146.782,98.771z"/>
		</g>
	</g>
</g>
</svg>