<?xml version="1.0" encoding="utf-8"?>

<!DOCTYPE svg PUBLIC "-//W3C//DTD SVG 1.1//EN" "http://www.w3.org/Graphics/SVG/1.1/DTD/svg11.dtd">
<!-- Uploaded to: SVG Repo, www.svgrepo.com, Generator: SVG Repo Mixer Tools -->
<svg height="800px" width="800px" version="1.1" id="_x32_" xmlns="http://www.w3.org/2000/svg" xmlns:xlink="http://www.w3.org/1999/xlink" 
	 viewBox="0 0 512 512"  xml:space="preserve">
<style type="text/css">
	.st0{fill:#000000;}
</style>
<g>
	<path class="st0" d="M424.267,105.749c-2.652-2.66-5.363-5.244-8.149-7.777l31.257-9.9c1.58-0.499,2.607-2.019,2.503-3.672
		c-0.12-1.647-1.341-3.01-2.965-3.3l-70.828-12.492c-8.134-4.768-16.567-9.08-25.282-12.872l23.822-32.046
		c0.916-1.236,0.954-2.935,0.067-4.202c-0.879-1.266-2.465-1.832-3.955-1.408l-74.388,21.446c-2.205-0.372-4.41-0.737-6.629-1.05
		L258.76,1.296C258.075,0.477,257.061,0,255.997,0c-1.066,0-2.078,0.477-2.764,1.296l-30.959,37.179
		c-2.22,0.314-4.425,0.678-6.63,1.05l-74.388-21.446c-1.483-0.424-3.07,0.142-3.956,1.408c-0.879,1.266-0.849,2.965,0.067,4.202
		l23.83,32.046c-8.723,3.792-17.156,8.105-25.29,12.872L65.08,81.1c-1.624,0.29-2.845,1.654-2.957,3.3
		c-0.112,1.653,0.924,3.173,2.504,3.672l31.249,9.9c-2.778,2.533-5.498,5.118-8.149,7.777
		c-43.034,43.004-69.71,102.62-69.702,168.278c-0.008,65.65,26.668,125.266,69.702,168.271
		c42.997,43.034,102.62,69.717,168.271,69.702c65.65,0.014,125.273-26.668,168.27-69.702c43.042-43.004,69.718-102.62,69.71-168.271
		C493.984,208.37,467.308,148.754,424.267,105.749z M397.345,415.368c-36.233,36.203-86.083,58.544-141.348,58.551
		c-55.259-0.008-105.116-22.348-141.349-58.551c-36.203-36.233-58.536-86.083-58.551-141.342
		c0.015-55.258,22.348-105.123,58.551-141.348c7.642-7.636,15.919-14.608,24.686-20.925l15.942,5.051
		c1.192,0.38,2.093,1.333,2.398,2.54c0.313,1.199-0.014,2.481-0.878,3.375l-51.549,54.11c-1.133,1.177-1.311,2.987-0.447,4.381
		c0.864,1.393,2.57,2.018,4.141,1.527l102.934-32.546c1.468-0.462,3.069,0.06,3.978,1.304l37.246,50.565
		c0.685,0.916,1.758,1.467,2.898,1.467c1.14,0,2.22-0.551,2.897-1.467l37.247-50.565c0.916-1.244,2.517-1.766,3.977-1.304
		l102.941,32.546c1.572,0.491,3.27-0.134,4.134-1.527c0.872-1.394,0.686-3.204-0.44-4.381l-51.556-54.11
		c-0.857-0.894-1.192-2.176-0.879-3.375c0.313-1.207,1.214-2.16,2.399-2.54l15.941-5.051c8.775,6.317,17.044,13.29,24.686,20.925
		c36.203,36.226,58.536,86.09,58.551,141.348C455.881,329.286,433.548,379.136,397.345,415.368z"/>
	<path class="st0" d="M122.491,278.616c0-8.671,1.654-16.91,4.656-24.478c2.428-6.108-0.567-13.028-6.674-15.45
		c-6.101-2.421-13.022,0.559-15.443,6.674c-4.09,10.295-6.339,21.543-6.339,33.254c0,12.775,2.682,24.985,7.494,36.032
		c2.622,6.027,9.64,8.79,15.658,6.16c6.027-2.622,8.79-9.632,6.161-15.658C124.465,297,122.491,288.062,122.491,278.616z"/>
</g>
</svg>